<svg xmlns="http://www.w3.org/2000/svg" width="189.999" height="51.033" viewBox="0 0 189.999 51.033"><defs><style>.a{fill:#242984;}.b{fill:#ff7820;}.c{fill:#fff;stroke:#fff;stroke-width:3px;}.d{fill:#383188;font-size:32px;font-family:Poppins, sans-serif;font-weight:700;}</style></defs><g transform="translate(-100 -75.257)"><g transform="translate(-12.001)"><g transform="translate(-31.189 -277.743)"><path class="a" d="M203.383,416.5a4.387,4.387,0,0,0,4.382,4.613c.076,0,.15,0,.227-.007s.17-.011.256-.02c.063-.007.123-.013.186-.025s.139-.022.206-.036a.054.054,0,0,0,.018,0c.07-.013.137-.029.2-.047s.139-.036.209-.058c.132-.04.262-.09.388-.141l.013-.007q.1-.04.2-.087c.063-.031.126-.063.186-.1a4.03,4.03,0,0,0,.536-.343c.056-.04.112-.085.166-.13l.018-.013,3.185,3.185a8.844,8.844,0,0,1-5.952,2.294h0a8.885,8.885,0,1,1,5.99-15.441l-3.221,3.221-.018-.013c-.054-.045-.11-.09-.166-.13s-.128-.094-.2-.139c-.052-.034-.1-.067-.155-.1s-.112-.067-.17-.1-.135-.072-.2-.1a4.7,4.7,0,0,0-.6-.236s0,0,0,0c-.067-.02-.137-.04-.2-.056s-.141-.036-.213-.049-.139-.027-.211-.038c0,0,0,0-.009,0q-.074-.013-.148-.02a2.438,2.438,0,0,0-.289-.025q-.111-.007-.222-.007h-.009q-.111,0-.222.007c-.072,0-.144.009-.215.016a.044.044,0,0,0-.018,0q-.1.01-.209.027c-.065.009-.13.02-.193.034-.117.022-.231.052-.345.085a4.425,4.425,0,0,0-2.994,2.94A8.612,8.612,0,0,0,203.383,416.5Z" transform="translate(-43.231 -42.517)"/><path class="b" d="M199.59,389.039l-2.541,2.541a10.339,10.339,0,1,0-7.024,17.929h0S197.085,386.673,199.59,389.039Z" transform="translate(-22.452 -23.994)"/><path class="a" d="M219.63,439.943a3.887,3.887,0,0,1,.218-.563A4.486,4.486,0,0,0,219.63,439.943Z" transform="translate(-59.296 -67.007)"/><path class="a" d="M223.377,428.78a4.455,4.455,0,0,0-2.777,2.377A4.373,4.373,0,0,1,223.377,428.78Z" transform="translate(-60.049 -58.784)"/><path class="b" d="M164.586,353a21.38,21.38,0,0,0-21.4,21.362c0,7.845,5.159,13.936,10.319,19.254,3.061,3.156,6.071,6.361,9.1,9.55a2.771,2.771,0,0,0,4,.027c2.373-2.454,4.69-4.968,7.047-7.435,2.6-2.723,5.506-5.329,7.769-8.334a21.864,21.864,0,0,0,4.557-13.062A21.379,21.379,0,0,0,164.586,353Zm-.7,35.182a13.986,13.986,0,1,1,10.256-24.137l-2.541,2.541a10.339,10.339,0,1,0-7.024,17.929h0a10.267,10.267,0,0,0,6.984-2.716l2.579,2.579A13.95,13.95,0,0,1,163.882,388.182Zm3.461-17.341-.018-.013c-.054-.045-.11-.09-.166-.13s-.128-.094-.2-.139c-.052-.034-.1-.067-.155-.1s-.112-.067-.17-.1-.135-.072-.2-.1a4.709,4.709,0,0,0-.6-.236s0,0,0,0c-.067-.02-.137-.04-.2-.056s-.141-.036-.213-.049-.139-.027-.211-.038c0,0,0,0-.009,0q-.074-.014-.148-.02a2.431,2.431,0,0,0-.289-.025q-.111-.007-.222-.007h-.009q-.111,0-.222.007c-.072,0-.144.009-.215.016a.044.044,0,0,0-.018,0q-.1.01-.209.027c-.065.009-.13.02-.193.034-.117.022-.231.052-.345.085a4.426,4.426,0,0,0-2.994,2.94,4.4,4.4,0,0,0-.168.861q-.01.094-.013.188a4.387,4.387,0,0,0,4.382,4.613c.076,0,.15,0,.227-.007s.17-.011.256-.02c.063-.007.123-.013.186-.025s.139-.022.206-.036a.053.053,0,0,0,.018,0c.07-.013.137-.029.2-.047s.139-.036.209-.058c.132-.04.262-.09.388-.141l.013-.007q.1-.04.2-.087c.063-.031.126-.063.186-.1a4.029,4.029,0,0,0,.536-.343c.056-.04.112-.085.166-.13l.018-.013,3.185,3.185a8.844,8.844,0,0,1-5.952,2.294h0a8.885,8.885,0,1,1,5.99-15.441Z"/><rect class="b" width="28" height="28" transform="translate(149.19 360.743)"/><path class="c" d="M196.179,405.914l.292.292a1.474,1.474,0,0,1-.2,2.243,12.813,12.813,0,1,1,.009-20.825,1.472,1.472,0,0,1,.186,2.236l-.254.254a1.461,1.461,0,0,1-1.878.165,9.473,9.473,0,1,0-5.49,17.194h0a9.4,9.4,0,0,0,5.445-1.719A1.467,1.467,0,0,1,196.179,405.914Z" transform="translate(-24.496 -23.821)"/></g><text class="d" transform="translate(165 110)"><tspan x="0" y="0">Carzoko</tspan></text></g></g></svg>